<mxfile host="app.diagrams.net" agent="Mozilla/5.0 (Windows NT 10.0; Win64; x64) AppleWebKit/537.36 (KHTML, like Gecko) Chrome/127.0.0.0 Safari/537.36" version="24.7.6">
  <diagram name="Page-1" id="aosDA4qA5bZYDhBi-emK">
    <mxGraphModel dx="1353" dy="1189" grid="1" gridSize="10" guides="1" tooltips="1" connect="1" arrows="1" fold="1" page="1" pageScale="1" pageWidth="827" pageHeight="1169" math="0" shadow="0">
      <root>
        <mxCell id="0" />
        <mxCell id="1" parent="0" />
        <mxCell id="ZMJJaka81BN4asmu8L4e-189" value="" style="rounded=0;whiteSpace=wrap;html=1;" vertex="1" parent="1">
          <mxGeometry x="260" y="40" width="2140" height="640" as="geometry" />
        </mxCell>
        <mxCell id="ZMJJaka81BN4asmu8L4e-63" value="" style="group" vertex="1" connectable="0" parent="1">
          <mxGeometry x="620" y="60" width="1830" height="820" as="geometry" />
        </mxCell>
        <mxCell id="ZMJJaka81BN4asmu8L4e-188" value="地下厂房" style="rounded=0;whiteSpace=wrap;html=1;fillColor=none;fontSize=17;strokeColor=none;" vertex="1" parent="ZMJJaka81BN4asmu8L4e-63">
          <mxGeometry x="561" y="-20" width="120" height="60" as="geometry" />
        </mxCell>
        <mxCell id="ZMJJaka81BN4asmu8L4e-4" value="" style="rounded=0;whiteSpace=wrap;html=1;fillColor=none;" vertex="1" parent="1">
          <mxGeometry x="335" y="50" width="260" height="570" as="geometry" />
        </mxCell>
        <mxCell id="ZMJJaka81BN4asmu8L4e-5" value="500kv设备在线监测系统柜" style="rounded=0;whiteSpace=wrap;html=1;fillColor=none;strokeColor=none;" vertex="1" parent="1">
          <mxGeometry x="390" y="91" width="150" height="60" as="geometry" />
        </mxCell>
        <mxCell id="ZMJJaka81BN4asmu8L4e-7" value="" style="image;html=1;image=img/lib/clip_art/networking/Print_Server_Wireless_128x128.png" vertex="1" parent="1">
          <mxGeometry x="402.5" y="160" width="65" height="60" as="geometry" />
        </mxCell>
        <mxCell id="ZMJJaka81BN4asmu8L4e-9" value="" style="image;html=1;image=img/lib/clip_art/networking/Wireless_Router_128x128.png" vertex="1" parent="1">
          <mxGeometry x="402.5" y="287" width="70" height="60" as="geometry" />
        </mxCell>
        <mxCell id="ZMJJaka81BN4asmu8L4e-18" value="" style="fontColor=#0066CC;verticalAlign=top;verticalLabelPosition=bottom;labelPosition=center;align=center;html=1;outlineConnect=0;fillColor=#CCCCCC;strokeColor=#6881B3;gradientColor=none;gradientDirection=north;strokeWidth=2;shape=mxgraph.networks.server;" vertex="1" parent="1">
          <mxGeometry x="410" y="510" width="50" height="50" as="geometry" />
        </mxCell>
        <mxCell id="ZMJJaka81BN4asmu8L4e-20" value="LAN口" style="rounded=0;whiteSpace=wrap;html=1;fillColor=none;strokeColor=none;" vertex="1" parent="1">
          <mxGeometry x="507.5" y="190" width="46" height="30" as="geometry" />
        </mxCell>
        <mxCell id="ZMJJaka81BN4asmu8L4e-21" value="" style="shape=singleArrow;direction=south;whiteSpace=wrap;html=1;" vertex="1" parent="1">
          <mxGeometry x="430" y="235" width="10" height="40" as="geometry" />
        </mxCell>
        <mxCell id="ZMJJaka81BN4asmu8L4e-22" value="(LAN:192.168.1.2&lt;div&gt;WAN:192.168.2.1)(局放在线监测系统柜)&lt;/div&gt;" style="rounded=0;whiteSpace=wrap;html=1;fillColor=none;strokeColor=none;" vertex="1" parent="1">
          <mxGeometry x="472.5" y="310" width="116" height="60" as="geometry" />
        </mxCell>
        <mxCell id="ZMJJaka81BN4asmu8L4e-26" value="" style="shape=singleArrow;direction=south;whiteSpace=wrap;html=1;" vertex="1" parent="1">
          <mxGeometry x="430.5" y="141" width="10" height="40" as="geometry" />
        </mxCell>
        <mxCell id="ZMJJaka81BN4asmu8L4e-29" value="" style="shape=singleArrow;direction=south;whiteSpace=wrap;html=1;rotation=-180;" vertex="1" parent="1">
          <mxGeometry x="430" y="365.6" width="10" height="40" as="geometry" />
        </mxCell>
        <mxCell id="ZMJJaka81BN4asmu8L4e-30" value="" style="image;html=1;image=img/lib/clip_art/networking/Print_Server_Wireless_128x128.png" vertex="1" parent="1">
          <mxGeometry x="402.5" y="390" width="65" height="60" as="geometry" />
        </mxCell>
        <mxCell id="ZMJJaka81BN4asmu8L4e-31" value="WAN口" style="rounded=0;whiteSpace=wrap;html=1;fillColor=none;strokeColor=none;" vertex="1" parent="1">
          <mxGeometry x="500" y="420" width="46" height="30" as="geometry" />
        </mxCell>
        <mxCell id="ZMJJaka81BN4asmu8L4e-32" value="" style="shape=singleArrow;direction=south;whiteSpace=wrap;html=1;rotation=-180;" vertex="1" parent="1">
          <mxGeometry x="432.5" y="460" width="10" height="40" as="geometry" />
        </mxCell>
        <mxCell id="ZMJJaka81BN4asmu8L4e-33" value="服务器网口2(192.168.2.2)&lt;div&gt;(局放在线监测系统柜)&lt;/div&gt;" style="rounded=0;whiteSpace=wrap;html=1;strokeColor=none;fillColor=none;" vertex="1" parent="1">
          <mxGeometry x="470.5" y="500" width="120" height="60" as="geometry" />
        </mxCell>
        <mxCell id="ZMJJaka81BN4asmu8L4e-36" value="开关站" style="rounded=0;whiteSpace=wrap;html=1;fillColor=none;strokeColor=none;fontSize=17;" vertex="1" parent="1">
          <mxGeometry x="387.5" y="60" width="100" height="40" as="geometry" />
        </mxCell>
        <mxCell id="ZMJJaka81BN4asmu8L4e-83" value="" style="group" vertex="1" connectable="0" parent="1">
          <mxGeometry x="1000" y="940" width="360" height="480" as="geometry" />
        </mxCell>
        <mxCell id="ZMJJaka81BN4asmu8L4e-84" value="" style="group" vertex="1" connectable="0" parent="ZMJJaka81BN4asmu8L4e-83">
          <mxGeometry width="360" height="480" as="geometry" />
        </mxCell>
        <mxCell id="ZMJJaka81BN4asmu8L4e-86" value="" style="image;html=1;image=img/lib/clip_art/networking/Wireless_Router_N_128x128.png" vertex="1" parent="ZMJJaka81BN4asmu8L4e-84">
          <mxGeometry x="115.20000000000005" y="20" width="70" height="69" as="geometry" />
        </mxCell>
        <mxCell id="ZMJJaka81BN4asmu8L4e-87" value="" style="dashed=0;outlineConnect=0;html=1;align=center;labelPosition=center;verticalLabelPosition=bottom;verticalAlign=top;shape=mxgraph.weblogos.feed;fillColor=#000000;rotation=-45;" vertex="1" parent="ZMJJaka81BN4asmu8L4e-84">
          <mxGeometry x="140" y="130" width="40.4" height="39.23" as="geometry" />
        </mxCell>
        <mxCell id="ZMJJaka81BN4asmu8L4e-88" value="主路由(192.168.1.6)&lt;div&gt;(2号联合单元局放监测系统地下现场分配柜)&lt;span class=&quot;eusoft-eudic-chrome-extension-translate-content&quot;&gt;&lt;/span&gt;&lt;br&gt;&lt;/div&gt;" style="rounded=0;whiteSpace=wrap;html=1;strokeColor=none;fillColor=none;" vertex="1" parent="ZMJJaka81BN4asmu8L4e-84">
          <mxGeometry x="30.200000000000045" y="80" width="240" height="60" as="geometry" />
        </mxCell>
        <mxCell id="ZMJJaka81BN4asmu8L4e-89" value="" style="shape=singleArrow;direction=south;whiteSpace=wrap;html=1;" vertex="1" parent="ZMJJaka81BN4asmu8L4e-84">
          <mxGeometry x="155.20000000000005" y="180" width="10" height="40" as="geometry" />
        </mxCell>
        <mxCell id="ZMJJaka81BN4asmu8L4e-90" value="" style="rounded=0;whiteSpace=wrap;html=1;fillColor=none;" vertex="1" parent="ZMJJaka81BN4asmu8L4e-84">
          <mxGeometry x="20" y="370" width="320" height="100" as="geometry" />
        </mxCell>
        <mxCell id="ZMJJaka81BN4asmu8L4e-91" value="" style="image;html=1;image=img/lib/clip_art/networking/Wireless_Router_128x128.png" vertex="1" parent="ZMJJaka81BN4asmu8L4e-84">
          <mxGeometry x="50" y="370" width="70" height="70" as="geometry" />
        </mxCell>
        <mxCell id="ZMJJaka81BN4asmu8L4e-92" value="&lt;div&gt;&lt;br&gt;&lt;/div&gt;&lt;div&gt;子路由&lt;/div&gt;（1号主变)" style="rounded=0;whiteSpace=wrap;html=1;fillColor=none;strokeColor=none;" vertex="1" parent="ZMJJaka81BN4asmu8L4e-84">
          <mxGeometry x="40" y="430" width="80" height="34.4" as="geometry" />
        </mxCell>
        <mxCell id="ZMJJaka81BN4asmu8L4e-93" value="" style="image;html=1;image=img/lib/clip_art/networking/Wireless_Router_128x128.png" vertex="1" parent="ZMJJaka81BN4asmu8L4e-84">
          <mxGeometry x="145" y="365" width="70" height="70" as="geometry" />
        </mxCell>
        <mxCell id="ZMJJaka81BN4asmu8L4e-94" value="" style="image;html=1;image=img/lib/clip_art/networking/Wireless_Router_128x128.png" vertex="1" parent="ZMJJaka81BN4asmu8L4e-84">
          <mxGeometry x="240" y="370" width="70" height="70" as="geometry" />
        </mxCell>
        <mxCell id="ZMJJaka81BN4asmu8L4e-95" value="&lt;div&gt;&lt;br&gt;&lt;/div&gt;&lt;div&gt;子路由&lt;/div&gt;（3号主变)" style="rounded=0;whiteSpace=wrap;html=1;fillColor=none;strokeColor=none;" vertex="1" parent="ZMJJaka81BN4asmu8L4e-84">
          <mxGeometry x="230" y="429.99999999999994" width="80" height="34.4" as="geometry" />
        </mxCell>
        <mxCell id="ZMJJaka81BN4asmu8L4e-96" value="&lt;div&gt;&lt;br&gt;&lt;/div&gt;&lt;div&gt;子路由&lt;/div&gt;（2号主变)" style="rounded=0;whiteSpace=wrap;html=1;fillColor=none;strokeColor=none;" vertex="1" parent="ZMJJaka81BN4asmu8L4e-84">
          <mxGeometry x="135" y="430" width="80" height="34.4" as="geometry" />
        </mxCell>
        <mxCell id="ZMJJaka81BN4asmu8L4e-97" value="" style="dashed=0;outlineConnect=0;html=1;align=center;labelPosition=center;verticalLabelPosition=bottom;verticalAlign=top;shape=mxgraph.weblogos.feed;fillColor=#000000;rotation=-45;" vertex="1" parent="ZMJJaka81BN4asmu8L4e-84">
          <mxGeometry x="290" y="130" width="40.4" height="39.23" as="geometry" />
        </mxCell>
        <mxCell id="ZMJJaka81BN4asmu8L4e-98" value="" style="endArrow=classic;html=1;rounded=0;" edge="1" parent="ZMJJaka81BN4asmu8L4e-84" source="ZMJJaka81BN4asmu8L4e-97">
          <mxGeometry width="50" height="50" relative="1" as="geometry">
            <mxPoint x="309.999209646723" y="194.99558937922495" as="sourcePoint" />
            <mxPoint x="150" y="370" as="targetPoint" />
            <Array as="points">
              <mxPoint x="309.83000000000004" y="347.61" />
              <mxPoint x="149.83000000000004" y="347.61" />
            </Array>
          </mxGeometry>
        </mxCell>
        <mxCell id="ZMJJaka81BN4asmu8L4e-99" value="" style="image;html=1;image=img/lib/clip_art/networking/Wireless_Router_128x128.png" vertex="1" parent="ZMJJaka81BN4asmu8L4e-83">
          <mxGeometry x="125.20000000000005" y="215.60000000000002" width="70" height="70" as="geometry" />
        </mxCell>
        <mxCell id="ZMJJaka81BN4asmu8L4e-100" value="子路由&lt;div&gt;(地下GIS层下游测1号检修插座箱)&lt;/div&gt;" style="rounded=0;whiteSpace=wrap;html=1;strokeColor=none;fillColor=none;" vertex="1" parent="ZMJJaka81BN4asmu8L4e-83">
          <mxGeometry x="67.80000000000007" y="280" width="184.8" height="60" as="geometry" />
        </mxCell>
        <mxCell id="ZMJJaka81BN4asmu8L4e-102" value="" style="rounded=0;whiteSpace=wrap;html=1;strokeColor=none;fillColor=none;" vertex="1" parent="1">
          <mxGeometry x="1020" y="420" width="120" height="60" as="geometry" />
        </mxCell>
        <mxCell id="ZMJJaka81BN4asmu8L4e-148" value="" style="rounded=0;whiteSpace=wrap;html=1;fillColor=none;" vertex="1" parent="1">
          <mxGeometry x="640" y="50" width="1720" height="570" as="geometry" />
        </mxCell>
        <mxCell id="ZMJJaka81BN4asmu8L4e-107" value="" style="group" vertex="1" connectable="0" parent="1">
          <mxGeometry x="650" y="90" width="820" height="520" as="geometry" />
        </mxCell>
        <mxCell id="ZMJJaka81BN4asmu8L4e-108" value="" style="rounded=0;whiteSpace=wrap;html=1;fillColor=none;strokeColor=default;" vertex="1" parent="ZMJJaka81BN4asmu8L4e-107">
          <mxGeometry width="820" height="520" as="geometry" />
        </mxCell>
        <mxCell id="ZMJJaka81BN4asmu8L4e-109" value="" style="group" vertex="1" connectable="0" parent="ZMJJaka81BN4asmu8L4e-107">
          <mxGeometry x="52.34042553191489" y="49.31034482758621" width="314.04255319148933" height="450" as="geometry" />
        </mxCell>
        <mxCell id="ZMJJaka81BN4asmu8L4e-110" value="" style="group" vertex="1" connectable="0" parent="ZMJJaka81BN4asmu8L4e-109">
          <mxGeometry width="314.04255319148933" height="450" as="geometry" />
        </mxCell>
        <mxCell id="ZMJJaka81BN4asmu8L4e-111" value="" style="rounded=0;whiteSpace=wrap;html=1;fillColor=none;" vertex="1" parent="ZMJJaka81BN4asmu8L4e-110">
          <mxGeometry width="314.04" height="450" as="geometry" />
        </mxCell>
        <mxCell id="ZMJJaka81BN4asmu8L4e-112" value="" style="image;html=1;image=img/lib/clip_art/networking/Wireless_Router_N_128x128.png" vertex="1" parent="ZMJJaka81BN4asmu8L4e-110">
          <mxGeometry x="100.49361702127663" y="17.93103448275862" width="61.063829787234035" height="61.862068965517246" as="geometry" />
        </mxCell>
        <mxCell id="ZMJJaka81BN4asmu8L4e-113" value="" style="dashed=0;outlineConnect=0;html=1;align=center;labelPosition=center;verticalLabelPosition=bottom;verticalAlign=top;shape=mxgraph.weblogos.feed;fillColor=#000000;rotation=-45;" vertex="1" parent="ZMJJaka81BN4asmu8L4e-110">
          <mxGeometry x="122.12765957446807" y="116.55172413793105" width="35.24255319148936" height="35.17172413793103" as="geometry" />
        </mxCell>
        <mxCell id="ZMJJaka81BN4asmu8L4e-114" value="主路由(192.168.1.6)&lt;div&gt;(2号联合单元局放监测系统地下现场分配柜)&lt;span class=&quot;eusoft-eudic-chrome-extension-translate-content&quot;&gt;&lt;/span&gt;&lt;br&gt;&lt;/div&gt;" style="rounded=0;whiteSpace=wrap;html=1;strokeColor=none;fillColor=none;" vertex="1" parent="ZMJJaka81BN4asmu8L4e-110">
          <mxGeometry x="26.344680851063867" y="71.72413793103448" width="209.36170212765953" height="53.79310344827587" as="geometry" />
        </mxCell>
        <mxCell id="ZMJJaka81BN4asmu8L4e-115" value="" style="shape=singleArrow;direction=south;whiteSpace=wrap;html=1;" vertex="1" parent="ZMJJaka81BN4asmu8L4e-110">
          <mxGeometry x="135.38723404255322" y="161.3793103448276" width="8.72340425531915" height="35.86206896551724" as="geometry" />
        </mxCell>
        <mxCell id="ZMJJaka81BN4asmu8L4e-116" value="" style="rounded=0;whiteSpace=wrap;html=1;fillColor=none;" vertex="1" parent="ZMJJaka81BN4asmu8L4e-110">
          <mxGeometry x="17.45" y="331.72" width="279.15" height="98.28" as="geometry" />
        </mxCell>
        <mxCell id="ZMJJaka81BN4asmu8L4e-117" value="" style="image;html=1;image=img/lib/clip_art/networking/Wireless_Router_128x128.png" vertex="1" parent="ZMJJaka81BN4asmu8L4e-110">
          <mxGeometry x="43.61702127659574" y="331.7241379310345" width="61.063829787234035" height="62.75862068965518" as="geometry" />
        </mxCell>
        <mxCell id="ZMJJaka81BN4asmu8L4e-118" value="&lt;div&gt;&lt;br&gt;&lt;/div&gt;&lt;div&gt;子路由&lt;/div&gt;（1号主变)" style="rounded=0;whiteSpace=wrap;html=1;fillColor=none;strokeColor=none;" vertex="1" parent="ZMJJaka81BN4asmu8L4e-110">
          <mxGeometry x="34.8936170212766" y="385.5172413793104" width="69.7872340425532" height="30.841379310344827" as="geometry" />
        </mxCell>
        <mxCell id="ZMJJaka81BN4asmu8L4e-119" value="" style="image;html=1;image=img/lib/clip_art/networking/Wireless_Router_128x128.png" vertex="1" parent="ZMJJaka81BN4asmu8L4e-110">
          <mxGeometry x="126.48936170212765" y="327.2413793103449" width="61.063829787234035" height="62.75862068965518" as="geometry" />
        </mxCell>
        <mxCell id="ZMJJaka81BN4asmu8L4e-120" value="" style="image;html=1;image=img/lib/clip_art/networking/Wireless_Router_128x128.png" vertex="1" parent="ZMJJaka81BN4asmu8L4e-110">
          <mxGeometry x="209.36170212765953" y="331.7241379310345" width="61.063829787234035" height="62.75862068965518" as="geometry" />
        </mxCell>
        <mxCell id="ZMJJaka81BN4asmu8L4e-121" value="&lt;div&gt;&lt;br&gt;&lt;/div&gt;&lt;div&gt;子路由&lt;/div&gt;（3号主变)" style="rounded=0;whiteSpace=wrap;html=1;fillColor=none;strokeColor=none;" vertex="1" parent="ZMJJaka81BN4asmu8L4e-110">
          <mxGeometry x="200.6382978723404" y="385.51724137931035" width="69.7872340425532" height="30.841379310344827" as="geometry" />
        </mxCell>
        <mxCell id="ZMJJaka81BN4asmu8L4e-122" value="&lt;div&gt;&lt;br&gt;&lt;/div&gt;&lt;div&gt;子路由&lt;/div&gt;（2号主变)" style="rounded=0;whiteSpace=wrap;html=1;fillColor=none;strokeColor=none;" vertex="1" parent="ZMJJaka81BN4asmu8L4e-110">
          <mxGeometry x="117.7659574468085" y="385.5172413793104" width="69.7872340425532" height="30.841379310344827" as="geometry" />
        </mxCell>
        <mxCell id="ZMJJaka81BN4asmu8L4e-123" value="" style="dashed=0;outlineConnect=0;html=1;align=center;labelPosition=center;verticalLabelPosition=bottom;verticalAlign=top;shape=mxgraph.weblogos.feed;fillColor=#000000;rotation=-45;" vertex="1" parent="ZMJJaka81BN4asmu8L4e-110">
          <mxGeometry x="252.9787234042553" y="116.55172413793105" width="35.24255319148936" height="35.17172413793103" as="geometry" />
        </mxCell>
        <mxCell id="ZMJJaka81BN4asmu8L4e-124" value="" style="endArrow=classic;html=1;rounded=0;" edge="1" parent="ZMJJaka81BN4asmu8L4e-110" source="ZMJJaka81BN4asmu8L4e-123">
          <mxGeometry width="50" height="50" relative="1" as="geometry">
            <mxPoint x="270.42484245777956" y="174.82363185723617" as="sourcePoint" />
            <mxPoint x="130.85106382978722" y="331.7241379310345" as="targetPoint" />
            <Array as="points">
              <mxPoint x="270.2772340425532" y="311.6503448275862" />
              <mxPoint x="130.70276595744684" y="311.6503448275862" />
            </Array>
          </mxGeometry>
        </mxCell>
        <mxCell id="ZMJJaka81BN4asmu8L4e-125" value="" style="image;html=1;image=img/lib/clip_art/networking/Wireless_Router_128x128.png" vertex="1" parent="ZMJJaka81BN4asmu8L4e-109">
          <mxGeometry x="109.21702127659577" y="193.29655172413797" width="61.063829787234035" height="62.75862068965518" as="geometry" />
        </mxCell>
        <mxCell id="ZMJJaka81BN4asmu8L4e-126" value="子路由&lt;div&gt;(地下GIS层下游测1号检修插座箱)&lt;/div&gt;" style="rounded=0;whiteSpace=wrap;html=1;strokeColor=none;fillColor=none;" vertex="1" parent="ZMJJaka81BN4asmu8L4e-109">
          <mxGeometry x="59.14468085106389" y="251.03448275862073" width="161.20851063829787" height="53.79310344827587" as="geometry" />
        </mxCell>
        <mxCell id="ZMJJaka81BN4asmu8L4e-127" value="" style="group" vertex="1" connectable="0" parent="ZMJJaka81BN4asmu8L4e-107">
          <mxGeometry x="436.17021276595744" y="49.31034482758621" width="314.04255319148933" height="450" as="geometry" />
        </mxCell>
        <mxCell id="ZMJJaka81BN4asmu8L4e-128" value="" style="group" vertex="1" connectable="0" parent="ZMJJaka81BN4asmu8L4e-127">
          <mxGeometry width="314.04255319148933" height="450" as="geometry" />
        </mxCell>
        <mxCell id="ZMJJaka81BN4asmu8L4e-129" value="" style="rounded=0;whiteSpace=wrap;html=1;fillColor=none;" vertex="1" parent="ZMJJaka81BN4asmu8L4e-128">
          <mxGeometry width="314.04" height="450" as="geometry" />
        </mxCell>
        <mxCell id="ZMJJaka81BN4asmu8L4e-130" value="" style="image;html=1;image=img/lib/clip_art/networking/Wireless_Router_N_128x128.png" vertex="1" parent="ZMJJaka81BN4asmu8L4e-128">
          <mxGeometry x="100.49361702127663" y="17.93103448275862" width="61.063829787234035" height="61.862068965517246" as="geometry" />
        </mxCell>
        <mxCell id="ZMJJaka81BN4asmu8L4e-131" value="" style="dashed=0;outlineConnect=0;html=1;align=center;labelPosition=center;verticalLabelPosition=bottom;verticalAlign=top;shape=mxgraph.weblogos.feed;fillColor=#000000;rotation=-45;" vertex="1" parent="ZMJJaka81BN4asmu8L4e-128">
          <mxGeometry x="122.12765957446807" y="116.55172413793105" width="35.24255319148936" height="35.17172413793103" as="geometry" />
        </mxCell>
        <mxCell id="ZMJJaka81BN4asmu8L4e-132" value="主路由(192.168.1.7)&lt;div&gt;(2号联合单元局放监测系统地下现场分配柜)&lt;span class=&quot;eusoft-eudic-chrome-extension-translate-content&quot;&gt;&lt;/span&gt;&lt;br&gt;&lt;/div&gt;" style="rounded=0;whiteSpace=wrap;html=1;strokeColor=none;fillColor=none;" vertex="1" parent="ZMJJaka81BN4asmu8L4e-128">
          <mxGeometry x="26.344680851063867" y="71.72413793103448" width="209.36170212765953" height="53.79310344827587" as="geometry" />
        </mxCell>
        <mxCell id="ZMJJaka81BN4asmu8L4e-133" value="" style="shape=singleArrow;direction=south;whiteSpace=wrap;html=1;" vertex="1" parent="ZMJJaka81BN4asmu8L4e-128">
          <mxGeometry x="135.38723404255322" y="161.3793103448276" width="8.72340425531915" height="35.86206896551724" as="geometry" />
        </mxCell>
        <mxCell id="ZMJJaka81BN4asmu8L4e-134" value="" style="rounded=0;whiteSpace=wrap;html=1;fillColor=none;" vertex="1" parent="ZMJJaka81BN4asmu8L4e-128">
          <mxGeometry x="17.45" y="331.72" width="279.15" height="98.28" as="geometry" />
        </mxCell>
        <mxCell id="ZMJJaka81BN4asmu8L4e-135" value="" style="image;html=1;image=img/lib/clip_art/networking/Wireless_Router_128x128.png" vertex="1" parent="ZMJJaka81BN4asmu8L4e-128">
          <mxGeometry x="43.61702127659574" y="331.7241379310345" width="61.063829787234035" height="62.75862068965518" as="geometry" />
        </mxCell>
        <mxCell id="ZMJJaka81BN4asmu8L4e-136" value="&lt;div&gt;&lt;br&gt;&lt;/div&gt;&lt;div&gt;子路由&lt;/div&gt;（4号主变)" style="rounded=0;whiteSpace=wrap;html=1;fillColor=none;strokeColor=none;" vertex="1" parent="ZMJJaka81BN4asmu8L4e-128">
          <mxGeometry x="34.8936170212766" y="385.5172413793104" width="69.7872340425532" height="30.841379310344827" as="geometry" />
        </mxCell>
        <mxCell id="ZMJJaka81BN4asmu8L4e-137" value="" style="image;html=1;image=img/lib/clip_art/networking/Wireless_Router_128x128.png" vertex="1" parent="ZMJJaka81BN4asmu8L4e-128">
          <mxGeometry x="126.48936170212765" y="327.2413793103449" width="61.063829787234035" height="62.75862068965518" as="geometry" />
        </mxCell>
        <mxCell id="ZMJJaka81BN4asmu8L4e-138" value="" style="image;html=1;image=img/lib/clip_art/networking/Wireless_Router_128x128.png" vertex="1" parent="ZMJJaka81BN4asmu8L4e-128">
          <mxGeometry x="209.36170212765953" y="331.7241379310345" width="61.063829787234035" height="62.75862068965518" as="geometry" />
        </mxCell>
        <mxCell id="ZMJJaka81BN4asmu8L4e-139" value="&lt;div&gt;&lt;br&gt;&lt;/div&gt;&lt;div&gt;子路由&lt;/div&gt;（6号主变)" style="rounded=0;whiteSpace=wrap;html=1;fillColor=none;strokeColor=none;" vertex="1" parent="ZMJJaka81BN4asmu8L4e-128">
          <mxGeometry x="200.6382978723404" y="385.51724137931035" width="69.7872340425532" height="30.841379310344827" as="geometry" />
        </mxCell>
        <mxCell id="ZMJJaka81BN4asmu8L4e-140" value="&lt;div&gt;&lt;br&gt;&lt;/div&gt;&lt;div&gt;子路由&lt;/div&gt;（5号主变)" style="rounded=0;whiteSpace=wrap;html=1;fillColor=none;strokeColor=none;" vertex="1" parent="ZMJJaka81BN4asmu8L4e-128">
          <mxGeometry x="117.7659574468085" y="385.5172413793104" width="69.7872340425532" height="30.841379310344827" as="geometry" />
        </mxCell>
        <mxCell id="ZMJJaka81BN4asmu8L4e-141" value="" style="dashed=0;outlineConnect=0;html=1;align=center;labelPosition=center;verticalLabelPosition=bottom;verticalAlign=top;shape=mxgraph.weblogos.feed;fillColor=#000000;rotation=-45;" vertex="1" parent="ZMJJaka81BN4asmu8L4e-128">
          <mxGeometry x="252.9787234042553" y="116.55172413793105" width="35.24255319148936" height="35.17172413793103" as="geometry" />
        </mxCell>
        <mxCell id="ZMJJaka81BN4asmu8L4e-142" value="" style="endArrow=classic;html=1;rounded=0;" edge="1" parent="ZMJJaka81BN4asmu8L4e-128" source="ZMJJaka81BN4asmu8L4e-141">
          <mxGeometry width="50" height="50" relative="1" as="geometry">
            <mxPoint x="270.42484245777956" y="174.82363185723617" as="sourcePoint" />
            <mxPoint x="130.85106382978722" y="331.7241379310345" as="targetPoint" />
            <Array as="points">
              <mxPoint x="270.2772340425532" y="311.6503448275862" />
              <mxPoint x="130.70276595744684" y="311.6503448275862" />
            </Array>
          </mxGeometry>
        </mxCell>
        <mxCell id="ZMJJaka81BN4asmu8L4e-143" value="" style="image;html=1;image=img/lib/clip_art/networking/Wireless_Router_128x128.png" vertex="1" parent="ZMJJaka81BN4asmu8L4e-127">
          <mxGeometry x="109.21702127659577" y="193.29655172413797" width="61.063829787234035" height="62.75862068965518" as="geometry" />
        </mxCell>
        <mxCell id="ZMJJaka81BN4asmu8L4e-144" value="子路由&lt;div&gt;(地下GIS层下游测2号检修插座箱)&lt;/div&gt;" style="rounded=0;whiteSpace=wrap;html=1;strokeColor=none;fillColor=none;" vertex="1" parent="ZMJJaka81BN4asmu8L4e-127">
          <mxGeometry x="59.14468085106389" y="251.03448275862073" width="161.20851063829787" height="53.79310344827587" as="geometry" />
        </mxCell>
        <mxCell id="ZMJJaka81BN4asmu8L4e-145" value="一期" style="rounded=0;whiteSpace=wrap;html=1;strokeColor=none;fillColor=none;fontSize=23;" vertex="1" parent="ZMJJaka81BN4asmu8L4e-107">
          <mxGeometry x="348.936170212766" width="104.68085106382978" height="53.79310344827587" as="geometry" />
        </mxCell>
        <mxCell id="ZMJJaka81BN4asmu8L4e-149" value="" style="group" vertex="1" connectable="0" parent="1">
          <mxGeometry x="1490" y="90" width="820" height="520" as="geometry" />
        </mxCell>
        <mxCell id="ZMJJaka81BN4asmu8L4e-150" value="" style="rounded=0;whiteSpace=wrap;html=1;fillColor=none;strokeColor=default;" vertex="1" parent="ZMJJaka81BN4asmu8L4e-149">
          <mxGeometry width="820" height="520" as="geometry" />
        </mxCell>
        <mxCell id="ZMJJaka81BN4asmu8L4e-151" value="" style="group" vertex="1" connectable="0" parent="ZMJJaka81BN4asmu8L4e-149">
          <mxGeometry x="52.34042553191489" y="49.31034482758621" width="314.04255319148933" height="450" as="geometry" />
        </mxCell>
        <mxCell id="ZMJJaka81BN4asmu8L4e-152" value="" style="group" vertex="1" connectable="0" parent="ZMJJaka81BN4asmu8L4e-151">
          <mxGeometry width="314.04255319148933" height="450" as="geometry" />
        </mxCell>
        <mxCell id="ZMJJaka81BN4asmu8L4e-153" value="" style="rounded=0;whiteSpace=wrap;html=1;fillColor=none;" vertex="1" parent="ZMJJaka81BN4asmu8L4e-152">
          <mxGeometry width="314.04" height="450" as="geometry" />
        </mxCell>
        <mxCell id="ZMJJaka81BN4asmu8L4e-154" value="" style="image;html=1;image=img/lib/clip_art/networking/Wireless_Router_N_128x128.png" vertex="1" parent="ZMJJaka81BN4asmu8L4e-152">
          <mxGeometry x="100.49361702127663" y="17.93103448275862" width="61.063829787234035" height="61.862068965517246" as="geometry" />
        </mxCell>
        <mxCell id="ZMJJaka81BN4asmu8L4e-155" value="" style="dashed=0;outlineConnect=0;html=1;align=center;labelPosition=center;verticalLabelPosition=bottom;verticalAlign=top;shape=mxgraph.weblogos.feed;fillColor=#000000;rotation=-45;" vertex="1" parent="ZMJJaka81BN4asmu8L4e-152">
          <mxGeometry x="122.12765957446807" y="116.55172413793105" width="35.24255319148936" height="35.17172413793103" as="geometry" />
        </mxCell>
        <mxCell id="ZMJJaka81BN4asmu8L4e-156" value="主路由(192.168.1.8)&lt;div&gt;(2号联合单元局放监测系统地下现场分配柜)&lt;span class=&quot;eusoft-eudic-chrome-extension-translate-content&quot;&gt;&lt;/span&gt;&lt;br&gt;&lt;/div&gt;" style="rounded=0;whiteSpace=wrap;html=1;strokeColor=none;fillColor=none;" vertex="1" parent="ZMJJaka81BN4asmu8L4e-152">
          <mxGeometry x="26.344680851063867" y="71.72413793103448" width="209.36170212765953" height="53.79310344827587" as="geometry" />
        </mxCell>
        <mxCell id="ZMJJaka81BN4asmu8L4e-157" value="" style="shape=singleArrow;direction=south;whiteSpace=wrap;html=1;" vertex="1" parent="ZMJJaka81BN4asmu8L4e-152">
          <mxGeometry x="135.38723404255322" y="161.3793103448276" width="8.72340425531915" height="35.86206896551724" as="geometry" />
        </mxCell>
        <mxCell id="ZMJJaka81BN4asmu8L4e-158" value="" style="rounded=0;whiteSpace=wrap;html=1;fillColor=none;" vertex="1" parent="ZMJJaka81BN4asmu8L4e-152">
          <mxGeometry x="17.45" y="331.72" width="279.15" height="98.28" as="geometry" />
        </mxCell>
        <mxCell id="ZMJJaka81BN4asmu8L4e-159" value="" style="image;html=1;image=img/lib/clip_art/networking/Wireless_Router_128x128.png" vertex="1" parent="ZMJJaka81BN4asmu8L4e-152">
          <mxGeometry x="43.61702127659574" y="331.7241379310345" width="61.063829787234035" height="62.75862068965518" as="geometry" />
        </mxCell>
        <mxCell id="ZMJJaka81BN4asmu8L4e-160" value="&lt;div&gt;&lt;br&gt;&lt;/div&gt;&lt;div&gt;子路由&lt;/div&gt;（7号主变)" style="rounded=0;whiteSpace=wrap;html=1;fillColor=none;strokeColor=none;" vertex="1" parent="ZMJJaka81BN4asmu8L4e-152">
          <mxGeometry x="34.8936170212766" y="385.5172413793104" width="69.7872340425532" height="30.841379310344827" as="geometry" />
        </mxCell>
        <mxCell id="ZMJJaka81BN4asmu8L4e-161" value="" style="image;html=1;image=img/lib/clip_art/networking/Wireless_Router_128x128.png" vertex="1" parent="ZMJJaka81BN4asmu8L4e-152">
          <mxGeometry x="126.48936170212765" y="327.2413793103449" width="61.063829787234035" height="62.75862068965518" as="geometry" />
        </mxCell>
        <mxCell id="ZMJJaka81BN4asmu8L4e-162" value="" style="image;html=1;image=img/lib/clip_art/networking/Wireless_Router_128x128.png" vertex="1" parent="ZMJJaka81BN4asmu8L4e-152">
          <mxGeometry x="209.36170212765953" y="331.7241379310345" width="61.063829787234035" height="62.75862068965518" as="geometry" />
        </mxCell>
        <mxCell id="ZMJJaka81BN4asmu8L4e-163" value="&lt;div&gt;&lt;br&gt;&lt;/div&gt;&lt;div&gt;子路由&lt;/div&gt;（9号主变)" style="rounded=0;whiteSpace=wrap;html=1;fillColor=none;strokeColor=none;" vertex="1" parent="ZMJJaka81BN4asmu8L4e-152">
          <mxGeometry x="200.6382978723404" y="385.51724137931035" width="69.7872340425532" height="30.841379310344827" as="geometry" />
        </mxCell>
        <mxCell id="ZMJJaka81BN4asmu8L4e-164" value="&lt;div&gt;&lt;br&gt;&lt;/div&gt;&lt;div&gt;子路由&lt;/div&gt;（8号主变)" style="rounded=0;whiteSpace=wrap;html=1;fillColor=none;strokeColor=none;" vertex="1" parent="ZMJJaka81BN4asmu8L4e-152">
          <mxGeometry x="117.7659574468085" y="385.5172413793104" width="69.7872340425532" height="30.841379310344827" as="geometry" />
        </mxCell>
        <mxCell id="ZMJJaka81BN4asmu8L4e-165" value="" style="dashed=0;outlineConnect=0;html=1;align=center;labelPosition=center;verticalLabelPosition=bottom;verticalAlign=top;shape=mxgraph.weblogos.feed;fillColor=#000000;rotation=-45;" vertex="1" parent="ZMJJaka81BN4asmu8L4e-152">
          <mxGeometry x="252.9787234042553" y="116.55172413793105" width="35.24255319148936" height="35.17172413793103" as="geometry" />
        </mxCell>
        <mxCell id="ZMJJaka81BN4asmu8L4e-166" value="" style="endArrow=classic;html=1;rounded=0;" edge="1" parent="ZMJJaka81BN4asmu8L4e-152" source="ZMJJaka81BN4asmu8L4e-165">
          <mxGeometry width="50" height="50" relative="1" as="geometry">
            <mxPoint x="270.42484245777956" y="174.82363185723617" as="sourcePoint" />
            <mxPoint x="130.85106382978722" y="331.7241379310345" as="targetPoint" />
            <Array as="points">
              <mxPoint x="270.2772340425532" y="311.6503448275862" />
              <mxPoint x="130.70276595744684" y="311.6503448275862" />
            </Array>
          </mxGeometry>
        </mxCell>
        <mxCell id="ZMJJaka81BN4asmu8L4e-167" value="" style="image;html=1;image=img/lib/clip_art/networking/Wireless_Router_128x128.png" vertex="1" parent="ZMJJaka81BN4asmu8L4e-151">
          <mxGeometry x="109.21702127659577" y="193.29655172413797" width="61.063829787234035" height="62.75862068965518" as="geometry" />
        </mxCell>
        <mxCell id="ZMJJaka81BN4asmu8L4e-168" value="子路由&lt;div&gt;(地下GIS层下游测4号检修插座箱)&lt;/div&gt;" style="rounded=0;whiteSpace=wrap;html=1;strokeColor=none;fillColor=none;" vertex="1" parent="ZMJJaka81BN4asmu8L4e-151">
          <mxGeometry x="59.14468085106389" y="251.03448275862073" width="161.20851063829787" height="53.79310344827587" as="geometry" />
        </mxCell>
        <mxCell id="ZMJJaka81BN4asmu8L4e-169" value="" style="group" vertex="1" connectable="0" parent="ZMJJaka81BN4asmu8L4e-149">
          <mxGeometry x="436.17021276595744" y="49.31034482758621" width="314.04255319148933" height="450" as="geometry" />
        </mxCell>
        <mxCell id="ZMJJaka81BN4asmu8L4e-170" value="" style="group" vertex="1" connectable="0" parent="ZMJJaka81BN4asmu8L4e-169">
          <mxGeometry width="314.04255319148933" height="450" as="geometry" />
        </mxCell>
        <mxCell id="ZMJJaka81BN4asmu8L4e-171" value="" style="rounded=0;whiteSpace=wrap;html=1;fillColor=none;" vertex="1" parent="ZMJJaka81BN4asmu8L4e-170">
          <mxGeometry width="314.04" height="450" as="geometry" />
        </mxCell>
        <mxCell id="ZMJJaka81BN4asmu8L4e-172" value="" style="image;html=1;image=img/lib/clip_art/networking/Wireless_Router_N_128x128.png" vertex="1" parent="ZMJJaka81BN4asmu8L4e-170">
          <mxGeometry x="100.49361702127663" y="17.93103448275862" width="61.063829787234035" height="61.862068965517246" as="geometry" />
        </mxCell>
        <mxCell id="ZMJJaka81BN4asmu8L4e-173" value="" style="dashed=0;outlineConnect=0;html=1;align=center;labelPosition=center;verticalLabelPosition=bottom;verticalAlign=top;shape=mxgraph.weblogos.feed;fillColor=#000000;rotation=-45;" vertex="1" parent="ZMJJaka81BN4asmu8L4e-170">
          <mxGeometry x="122.12765957446807" y="116.55172413793105" width="35.24255319148936" height="35.17172413793103" as="geometry" />
        </mxCell>
        <mxCell id="ZMJJaka81BN4asmu8L4e-174" value="主路由(192.168.1.9)&lt;div&gt;(2号联合单元局放监测系统地下现场分配柜)&lt;span class=&quot;eusoft-eudic-chrome-extension-translate-content&quot;&gt;&lt;/span&gt;&lt;br&gt;&lt;/div&gt;" style="rounded=0;whiteSpace=wrap;html=1;strokeColor=none;fillColor=none;" vertex="1" parent="ZMJJaka81BN4asmu8L4e-170">
          <mxGeometry x="26.344680851063867" y="71.72413793103448" width="209.36170212765953" height="53.79310344827587" as="geometry" />
        </mxCell>
        <mxCell id="ZMJJaka81BN4asmu8L4e-175" value="" style="shape=singleArrow;direction=south;whiteSpace=wrap;html=1;" vertex="1" parent="ZMJJaka81BN4asmu8L4e-170">
          <mxGeometry x="135.38723404255322" y="161.3793103448276" width="8.72340425531915" height="35.86206896551724" as="geometry" />
        </mxCell>
        <mxCell id="ZMJJaka81BN4asmu8L4e-176" value="" style="rounded=0;whiteSpace=wrap;html=1;fillColor=none;" vertex="1" parent="ZMJJaka81BN4asmu8L4e-170">
          <mxGeometry x="17.45" y="331.72" width="279.15" height="98.28" as="geometry" />
        </mxCell>
        <mxCell id="ZMJJaka81BN4asmu8L4e-177" value="" style="image;html=1;image=img/lib/clip_art/networking/Wireless_Router_128x128.png" vertex="1" parent="ZMJJaka81BN4asmu8L4e-170">
          <mxGeometry x="43.61702127659574" y="331.7241379310345" width="61.063829787234035" height="62.75862068965518" as="geometry" />
        </mxCell>
        <mxCell id="ZMJJaka81BN4asmu8L4e-178" value="&lt;div&gt;&lt;br&gt;&lt;/div&gt;&lt;div&gt;子路由&lt;/div&gt;（10号主变)" style="rounded=0;whiteSpace=wrap;html=1;fillColor=none;strokeColor=none;" vertex="1" parent="ZMJJaka81BN4asmu8L4e-170">
          <mxGeometry x="34.8936170212766" y="385.5172413793104" width="69.7872340425532" height="30.841379310344827" as="geometry" />
        </mxCell>
        <mxCell id="ZMJJaka81BN4asmu8L4e-179" value="" style="image;html=1;image=img/lib/clip_art/networking/Wireless_Router_128x128.png" vertex="1" parent="ZMJJaka81BN4asmu8L4e-170">
          <mxGeometry x="126.48936170212765" y="327.2413793103449" width="61.063829787234035" height="62.75862068965518" as="geometry" />
        </mxCell>
        <mxCell id="ZMJJaka81BN4asmu8L4e-180" value="" style="image;html=1;image=img/lib/clip_art/networking/Wireless_Router_128x128.png" vertex="1" parent="ZMJJaka81BN4asmu8L4e-170">
          <mxGeometry x="209.36170212765953" y="331.7241379310345" width="61.063829787234035" height="62.75862068965518" as="geometry" />
        </mxCell>
        <mxCell id="ZMJJaka81BN4asmu8L4e-181" value="&lt;div&gt;&lt;br&gt;&lt;/div&gt;&lt;div&gt;子路由&lt;/div&gt;（12号主变)" style="rounded=0;whiteSpace=wrap;html=1;fillColor=none;strokeColor=none;" vertex="1" parent="ZMJJaka81BN4asmu8L4e-170">
          <mxGeometry x="200.6382978723404" y="385.51724137931035" width="69.7872340425532" height="30.841379310344827" as="geometry" />
        </mxCell>
        <mxCell id="ZMJJaka81BN4asmu8L4e-182" value="&lt;div&gt;&lt;br&gt;&lt;/div&gt;&lt;div&gt;子路由&lt;/div&gt;（11号主变)" style="rounded=0;whiteSpace=wrap;html=1;fillColor=none;strokeColor=none;" vertex="1" parent="ZMJJaka81BN4asmu8L4e-170">
          <mxGeometry x="117.7659574468085" y="385.5172413793104" width="69.7872340425532" height="30.841379310344827" as="geometry" />
        </mxCell>
        <mxCell id="ZMJJaka81BN4asmu8L4e-183" value="" style="dashed=0;outlineConnect=0;html=1;align=center;labelPosition=center;verticalLabelPosition=bottom;verticalAlign=top;shape=mxgraph.weblogos.feed;fillColor=#000000;rotation=-45;" vertex="1" parent="ZMJJaka81BN4asmu8L4e-170">
          <mxGeometry x="252.9787234042553" y="116.55172413793105" width="35.24255319148936" height="35.17172413793103" as="geometry" />
        </mxCell>
        <mxCell id="ZMJJaka81BN4asmu8L4e-184" value="" style="endArrow=classic;html=1;rounded=0;" edge="1" parent="ZMJJaka81BN4asmu8L4e-170" source="ZMJJaka81BN4asmu8L4e-183">
          <mxGeometry width="50" height="50" relative="1" as="geometry">
            <mxPoint x="270.42484245777956" y="174.82363185723617" as="sourcePoint" />
            <mxPoint x="130.85106382978722" y="331.7241379310345" as="targetPoint" />
            <Array as="points">
              <mxPoint x="270.2772340425532" y="311.6503448275862" />
              <mxPoint x="130.70276595744684" y="311.6503448275862" />
            </Array>
          </mxGeometry>
        </mxCell>
        <mxCell id="ZMJJaka81BN4asmu8L4e-185" value="" style="image;html=1;image=img/lib/clip_art/networking/Wireless_Router_128x128.png" vertex="1" parent="ZMJJaka81BN4asmu8L4e-169">
          <mxGeometry x="109.21702127659577" y="193.29655172413797" width="61.063829787234035" height="62.75862068965518" as="geometry" />
        </mxCell>
        <mxCell id="ZMJJaka81BN4asmu8L4e-186" value="子路由&lt;div&gt;(地下GIS层下游测3号检修插座箱)&lt;/div&gt;" style="rounded=0;whiteSpace=wrap;html=1;strokeColor=none;fillColor=none;" vertex="1" parent="ZMJJaka81BN4asmu8L4e-169">
          <mxGeometry x="59.14468085106389" y="251.03448275862073" width="161.20851063829787" height="53.79310344827587" as="geometry" />
        </mxCell>
        <mxCell id="ZMJJaka81BN4asmu8L4e-187" value="二期" style="rounded=0;whiteSpace=wrap;html=1;strokeColor=none;fillColor=none;fontSize=23;" vertex="1" parent="ZMJJaka81BN4asmu8L4e-149">
          <mxGeometry x="348.936170212766" width="104.68085106382978" height="53.79310344827587" as="geometry" />
        </mxCell>
      </root>
    </mxGraphModel>
  </diagram>
</mxfile>
